<svg xmlns="http://www.w3.org/2000/svg" version="1.1" xmlns:xlink="http://www.w3.org/1999/xlink" xmlns:svgjs="http://svgjs.dev/svgjs" width="1000" height="999" viewBox="0 0 1000 999"><g transform="matrix(1,0,0,1,-0.215743440233382,-0.21552769679306039)"><svg viewBox="0 0 343 343" data-background-color="#c9efc7" preserveAspectRatio="xMidYMid meet" height="999" width="1000" xmlns="http://www.w3.org/2000/svg" xmlns:xlink="http://www.w3.org/1999/xlink"><g id="tight-bounds" transform="matrix(1,0,0,1,0.0740000000000407,0.07400000000001228)"><svg viewBox="0 0 342.85155851775386 342.85155851775386" height="342.85155851775386" width="342.85155851775386"><g><svg></svg></g><g><svg viewBox="0 0 342.85155851775386 342.85155851775386" height="342.85155851775386" width="342.85155851775386"><g><path d="M0 171.426c0-94.676 76.75-171.426 171.426-171.426 94.676 0 171.426 76.75 171.426 171.426 0 94.676-76.75 171.426-171.426 171.426-94.676 0-171.426-76.75-171.426-171.426zM171.426 325.653c85.177 0 154.227-69.05 154.227-154.227 0-85.177-69.05-154.227-154.227-154.227-85.177 0-154.227 69.05-154.227 154.227 0 85.177 69.05 154.227 154.227 154.227z" data-fill-palette-color="tertiary" fill="#454545" stroke="transparent"></path><ellipse rx="164.56874808852186" ry="164.56874808852186" cx="171.42577925887693" cy="171.42577925887693" fill="#454545" stroke="transparent" stroke-width="0" fill-opacity="1" data-fill-palette-color="tertiary"></ellipse></g><g transform="matrix(1,0,0,1,64.84655864529837,76.06868716831043)"><svg viewBox="0 0 213.1584412271571 190.714184181133" height="190.714184181133" width="213.1584412271571"><g><svg viewBox="0 0 213.1584412271571 190.714184181133" height="190.714184181133" width="213.1584412271571"><g><svg viewBox="0 0 213.15844122715714 190.71418418113302" height="190.714184181133" width="213.1584412271571"><g><svg viewBox="0 0 213.15844122715714 190.71418418113302" height="190.71418418113302" width="213.15844122715714"><g id="textblocktransform"><svg viewBox="0 0 213.15844122715714 190.71418418113302" height="190.71418418113302" width="213.15844122715714" id="textblock"><g><svg viewBox="0 0 213.15844122715714 190.71418418113302" height="190.71418418113302" width="213.15844122715714"><g transform="matrix(1,0,0,1,0,0)"><svg width="213.15844122715714" viewBox="-2.549999952316284 -51.25 85.95000457763672 76.9000015258789" height="190.71418418113302" data-palette-color="#c9efc7"><path d="M40.4-6.2Q41-5.8 41-5.05L41-5.05Q41-3.75 39.88-2.5 38.75-1.25 37.02-0.48 35.3 0.3 33.65 0.3L33.65 0.3Q31.05 0.3 29.68-1.63 28.3-3.55 27.98-4.98 27.65-6.4 27.1-10.1L27.1-10.1Q26.95-11.15 26.55-11.48 26.15-11.8 25-11.8L25-11.8 16.55-11.75Q12.45-5.1 9.15-2.27 5.85 0.55 2.15 0.55L2.15 0.55Q-0.15 0.55-1.35-0.35-2.55-1.25-2.55-2.7L-2.55-2.7Q-2.55-3.85-1.8-4.75-1.05-5.65 0.3-6L0.3-6Q0.3-4 0.88-3.33 1.45-2.65 2.75-2.65L2.75-2.65Q5.25-2.65 7.63-4.63 10-6.6 13.6-11.8L13.6-11.8Q12.45-11.9 11.98-12.2 11.5-12.5 11.5-13.1L11.5-13.1Q11.5-13.55 11.75-14.33 12-15.1 12.25-15.3L12.25-15.3Q13.05-15 15.5-14.65L15.5-14.65Q18.3-18.9 21.6-24.3 24.9-29.7 25.6-30.85L25.6-30.85Q26.55-32.4 28.3-35.3L28.3-35.3Q28.9-36.2 29.38-36.6 29.85-37 30.6-37L30.6-37Q31.25-37 32.15-36.75L32.15-36.75Q31.6-35.85 31.33-34.15 31.05-32.45 31-30.5L31-30.5 30.95-28.45Q30.95-25.85 31.08-22.38 31.2-18.9 31.35-16.7L31.35-16.7Q31.65-12.3 32.05-9.63 32.45-6.95 33.43-5.18 34.4-3.4 36.15-3.4L36.15-3.4Q37.3-3.4 38.4-4.17 39.5-4.95 40.4-6.2L40.4-6.2ZM23.25-14.15Q24.65-14.15 26.75-14.25L26.75-14.25 26.7-22.1Q26.7-26.3 27.05-29.05L27.05-29.05Q22.45-21.7 21.5-20.05L21.5-20.05 18.15-14.4Q21-14.15 23.25-14.15L23.25-14.15ZM66.45-12.5Q67.6-12.5 67.6-10.85L67.6-10.85Q67.6-10 67.3-9.1L67.3-9.1Q66.6-6.9 64.42-4.7 62.25-2.5 59.22-1.07 56.2 0.35 53 0.35L53 0.35Q49.45 0.35 47.57-1.48 45.7-3.3 45.7-6.5L45.7-6.5Q45.7-9.25 46.97-16.3 48.25-23.35 49.9-30.93 51.55-38.5 52.5-41.9L52.5-41.9Q55.1-51.25 59.65-51.25L59.65-51.25Q61.9-51.25 63-49.2 64.1-47.15 64.1-44L64.1-44Q64.1-37.7 60.15-28.93 56.2-20.15 50.7-12.35L50.7-12.35Q50.3-9.15 50.3-7.3L50.3-7.3Q50.3-4.5 51.17-3.45 52.05-2.4 53.9-2.4L53.9-2.4Q56.4-2.4 58.92-3.85 61.45-5.3 63.45-7.63 65.45-9.95 66.45-12.5L66.45-12.5ZM57-41.25Q55.55-35.9 54.02-29.38 52.5-22.85 51.5-17.4L51.5-17.4Q55.25-23.95 58-31.45 60.75-38.95 60.75-43.95L60.75-43.95Q60.75-45.5 60.45-46.5 60.15-47.5 59.6-47.5L59.6-47.5Q59.1-47.5 58.57-46.28 58.05-45.05 57-41.25L57-41.25ZM78.8-20.9Q80-20.9 81.62-20.63 83.25-20.35 83.4-19.75L83.4-19.75Q82.59-15.85 81.45-10.7 80.3-5.55 79.4-2.25L79.4-2.25Q76.34 9.25 70.42 17.45 64.5 25.65 54 25.65L54 25.65Q49.3 25.65 47 23.93 44.7 22.2 44.7 19.65L44.7 19.65Q44.7 17.95 45.75 16.6L45.75 16.6Q47.25 18.5 50 19.75 52.75 21 56.4 21L56.4 21Q60.7 21 64.05 18.85 67.39 16.7 70.2 11.55 73 6.4 75.4-2.5L75.4-2.5Q73.9-1.45 72.34-0.73 70.8 0 69.8 0L69.8 0Q68.8 0 67.5-0.63 66.2-1.25 65.27-2.25 64.34-3.25 64.34-4.35L64.34-4.35Q64.55-5.35 65.14-8.9L65.14-8.9Q66.05-14.95 67.05-19.4L67.05-19.4Q67.34-20.8 69.14-20.8L69.14-20.8Q69.75-20.8 70.7-20.73 71.65-20.65 71.95-20.55L71.95-20.55Q71.15-16.9 69.8-9.45L69.8-9.45Q69.34-6.65 69.05-5.3L69.05-5.3Q69-4.2 69.64-3.48 70.3-2.75 71.15-2.75L71.15-2.75Q72.2-2.75 73.77-3.78 75.34-4.8 76.15-5.85L76.15-5.85 77.09-11.25Q78.45-18.6 78.8-20.9L78.8-20.9Z" opacity="1" transform="matrix(1,0,0,1,0,0)" fill="#c9efc7" class="wordmark-text-0" data-fill-palette-color="quaternary" id="text-0"></path></svg></g></svg></g></svg></g></svg></g></svg></g></svg></g></svg></g></svg></g><defs></defs></svg><rect width="342.85155851775386" height="342.85155851775386" fill="none" stroke="none" visibility="hidden"></rect></g></svg></g></svg>